<?xml version="1.0" encoding="utf-8"?>
<!-- Generator: Adobe Illustrator 26.3.1, SVG Export Plug-In . SVG Version: 6.00 Build 0)  -->
<svg version="1.1" id="Calque_1" xmlns="http://www.w3.org/2000/svg" xmlns:xlink="http://www.w3.org/1999/xlink" x="0px" y="0px"
	 viewBox="0 0 43.8 49.3" style="enable-background:new 0 0 43.8 49.3;" xml:space="preserve">
<style type="text/css">
	.st0{fill:#4E4E4E;}
	.st1{fill:#333333;}
	.st2{fill:#FFFFFF;}
	.st3{display:none;fill:#333333;}
</style>
<g id="Calque_2_1_">
	<g>
		<path class="st0" d="M0.2,35c0,4.7,3.8,8.5,8.5,8.5h26.4c4.7,0,8.5-3.8,8.5-8.5V8.7c0-4.7-3.8-8.5-8.5-8.5H8.7
			C4,0.1,0.2,4,0.2,8.7V35z"/>
	</g>
</g>
<g>
	<path class="st1" d="M24.8,39.1c-0.1-5.2-2-9.6-5.6-13.2c-3.6-3.6-8.1-5.4-13.2-5.5c0-0.4,0-0.8,0-1.2c0.1-0.5,0.5-0.8,1.1-0.8
		c1.9,0,3.9,0,5.8,0c0.5,0,0.9,0.1,1.3,0.2c2.8,1.1,5.3,2.7,7.4,4.8c2.2,2.1,3.9,4.6,5,7.4c0.1,0.1,0.1,0.3,0.1,0.4
		c0,2.2,0,4.5,0,6.7c0,0.8-0.4,1.2-1.2,1.2C25.3,39.1,25.1,39.1,24.8,39.1z"/>
	<path class="st1" d="M21.7,39.1c-1.2,0-2.3,0-3.5,0c-0.1-3.3-1.3-6.2-3.7-8.5C12.2,28.2,9.3,27,6,26.9c0-1.1,0-2.2,0-3.4
		c3.8,0,7.1,1.2,10,3.6C19.7,30.2,21.6,34.2,21.7,39.1z"/>
	<path class="st1" d="M6,30.1c4.9-0.1,9.2,4,9.1,8.9c-0.1,0-0.1,0-0.2,0c-2.6,0-5.2,0-7.8,0C6.4,39.1,6,38.6,6,38c0-2.6,0-5.2,0-7.8
		C6,30.2,6,30.2,6,30.1z"/>
	<path class="st1" d="M26.7,24.4C25,22,22.9,20,20.4,18.3c0.1,0,0.2,0,0.3,0c1.6,0,3.2,0,4.9,0c0.7,0,1.1,0.4,1.1,1.1
		c0,1.6,0,3.1,0,4.7C26.7,24.2,26.7,24.3,26.7,24.4C26.7,24.4,26.7,24.4,26.7,24.4z"/>
</g>
<g>
	<path class="st2" d="M24.5,38.7c-0.1-5.2-2-9.6-5.6-13.2c-3.6-3.6-8.1-5.4-13.2-5.5c0-0.4,0-0.8,0-1.2c0.1-0.5,0.5-0.8,1.1-0.8
		c1.9,0,3.9,0,5.8,0c0.5,0,0.9,0.1,1.3,0.2c2.8,1.1,5.3,2.7,7.4,4.8c2.2,2.1,3.9,4.6,5,7.4c0.1,0.1,0.1,0.3,0.1,0.4
		c0,2.2,0,4.5,0,6.7c0,0.8-0.4,1.2-1.2,1.2C25,38.7,24.8,38.7,24.5,38.7z"/>
	<path class="st2" d="M21.4,38.7c-1.2,0-2.3,0-3.5,0c-0.1-3.3-1.3-6.2-3.7-8.5c-2.4-2.3-5.3-3.5-8.6-3.6c0-1.1,0-2.2,0-3.4
		c3.8,0,7.1,1.2,10,3.6C19.4,29.8,21.2,33.8,21.4,38.7z"/>
	<path class="st2" d="M5.6,29.7c4.9-0.1,9.2,4,9.1,8.9c-0.1,0-0.1,0-0.2,0c-2.6,0-5.2,0-7.8,0c-0.7,0-1.1-0.4-1.1-1.1
		c0-2.6,0-5.2,0-7.8C5.6,29.8,5.6,29.8,5.6,29.7z"/>
	<path class="st2" d="M26.3,24c-1.7-2.4-3.7-4.4-6.2-6.1c0.1,0,0.2,0,0.3,0c1.6,0,3.2,0,4.9,0c0.7,0,1.1,0.4,1.1,1.1
		c0,1.6,0,3.1,0,4.7C26.4,23.8,26.4,23.9,26.3,24C26.4,24,26.4,24,26.3,24z"/>
</g>
<g>
	<path class="st1" d="M29.6,12.6c-0.9,0.9-1.8,1.9-2.8,2.8c-0.3-0.3-0.6-0.6-0.9-1c1.1-1.1,2.3-2.3,3.4-3.4
		c-1.2-1.2-2.3-2.3-3.4-3.4c0.3-0.3,0.6-0.6,0.9-1c0.9,0.9,1.8,1.8,2.7,2.8c0,0,0,0,0.1,0c0-1,0-2.1,0-3.1c0-1,0-2.1,0-3.1
		c1.6,1.6,3.1,3.1,4.7,4.7c-1,1-2.1,2.1-3.2,3.1c1.1,1.1,2.2,2.1,3.2,3.2c-1.6,1.6-3.2,3.2-4.8,4.7C29.7,16.8,29.7,14.7,29.6,12.6
		C29.7,12.6,29.7,12.6,29.6,12.6z M31,9.2c0.5-0.5,1-1,1.4-1.4c-0.5-0.5-1-1-1.4-1.5C31,7.3,31,8.2,31,9.2z M31.1,12.7
		c0,1,0,1.9,0,2.9c0.5-0.5,1-1,1.4-1.4C32,13.7,31.5,13.2,31.1,12.7z"/>
	<path class="st1" d="M36.9,17.2c-0.1-0.2-0.2-0.3-0.2-0.5c2.4-1.1,3.8-3,3.8-5.7c0-2.7-1.4-4.5-3.8-5.7c0.1-0.2,0.2-0.4,0.2-0.5
		c2.2,0.8,4.3,3.2,4.2,6.4C41,14.1,39,16.4,36.9,17.2z"/>
	<path class="st1" d="M36.1,15.3c-0.1-0.2-0.2-0.4-0.2-0.5c1.7-0.8,2.7-2.1,2.6-4.1c-0.1-1.7-1-2.9-2.6-3.6C35.9,7,36,6.8,36.1,6.6
		c1.4,0.4,2.9,2,3,4.1C39.2,13,37.7,14.8,36.1,15.3z"/>
	<path class="st1" d="M35.2,13.5c-0.1-0.2-0.2-0.4-0.2-0.5c0.9-0.4,1.4-1,1.4-2c0-1-0.5-1.6-1.4-2c0.1-0.2,0.2-0.4,0.2-0.5
		c1,0.2,1.8,1.3,1.8,2.3C37.1,12,36.4,13.2,35.2,13.5z"/>
	<path class="st3" d="M31,9.2c0-1,0-2,0-2.9c0.5,0.5,1,1,1.4,1.5C32,8.2,31.5,8.7,31,9.2z"/>
	<path class="st3" d="M31.1,12.7c0.5,0.5,1,1,1.4,1.4c-0.5,0.5-1,0.9-1.4,1.4C31.1,14.7,31.1,13.7,31.1,12.7z"/>
</g>
<g>
	<path class="st2" d="M29.5,12.2c-0.9,0.9-1.8,1.9-2.8,2.8c-0.3-0.3-0.6-0.6-0.9-1c1.1-1.1,2.3-2.3,3.4-3.4
		c-1.2-1.2-2.3-2.3-3.4-3.4c0.3-0.3,0.6-0.6,0.9-1c0.9,0.9,1.8,1.8,2.7,2.8c0,0,0,0,0.1,0c0-1,0-2.1,0-3.1c0-1,0-2.1,0-3.1
		c1.6,1.6,3.1,3.1,4.7,4.7c-1,1-2.1,2.1-3.2,3.1c1.1,1.1,2.2,2.1,3.2,3.2c-1.6,1.6-3.2,3.2-4.8,4.7C29.5,16.4,29.5,14.4,29.5,12.2
		C29.5,12.3,29.5,12.3,29.5,12.2z M30.9,8.9c0.5-0.5,1-1,1.4-1.4c-0.5-0.5-1-1-1.4-1.5C30.9,6.9,30.9,7.9,30.9,8.9z M30.9,12.4
		c0,1,0,1.9,0,2.9c0.5-0.5,1-1,1.4-1.4C31.8,13.4,31.4,12.9,30.9,12.4z"/>
	<path class="st2" d="M36.7,16.8c-0.1-0.2-0.2-0.3-0.2-0.5c2.4-1.1,3.8-3,3.8-5.7c0-2.7-1.4-4.5-3.8-5.7c0.1-0.2,0.2-0.4,0.2-0.5
		c2.2,0.8,4.3,3.2,4.2,6.4C40.9,13.8,38.8,16.1,36.7,16.8z"/>
	<path class="st2" d="M35.9,15c-0.1-0.2-0.2-0.4-0.2-0.5c1.7-0.8,2.7-2.1,2.6-4.1c-0.1-1.7-1-2.9-2.6-3.6c0.1-0.2,0.2-0.4,0.2-0.5
		c1.4,0.4,2.9,2,3,4.1C39,12.7,37.5,14.4,35.9,15z"/>
	<path class="st2" d="M35.1,13.2c-0.1-0.2-0.2-0.4-0.2-0.5c0.9-0.4,1.4-1,1.4-2c0-1-0.5-1.6-1.4-2c0.1-0.2,0.2-0.4,0.2-0.5
		c1,0.2,1.8,1.3,1.8,2.3C37,11.7,36.2,12.8,35.1,13.2z"/>
</g>
</svg>
